<?xml version="1.0" encoding="utf-8"?>
<!-- Generator: Adobe Illustrator 22.0.1, SVG Export Plug-In . SVG Version: 6.00 Build 0)  -->
<svg version="1.1" id="Capa_1" xmlns="http://www.w3.org/2000/svg" xmlns:xlink="http://www.w3.org/1999/xlink" x="0px" y="0px"
	 viewBox="0 0 101.8 101.8" style="enable-background:new 0 0 101.8 101.8;" xml:space="preserve">
<g>
	<path d="M50.9,0C22.8,0,0,22.8,0,50.9c0,28.1,22.8,50.9,50.9,50.9c28.1,0,50.9-22.8,50.9-50.9C101.8,22.8,78.9,0,50.9,0z
		 M50.9,98.7c-26.3,0-47.8-21.4-47.8-47.8S24.5,3.1,50.9,3.1c26.3,0,47.8,21.4,47.8,47.8S77.2,98.7,50.9,98.7z"/>
	<path d="M77.1,29.2c-5.4-4.2-12.6-6.5-20.1-6.5c-7.6,0-14.8,2.3-20.1,6.5c-1.5,1.1-2.8,2.4-3.9,3.8l-0.6,0.7l0.9-0.1l0.1,0
		c1.1-0.1,2.3-0.2,3.4-0.3l0.1,0l0.1-0.1c4.9-4.7,12.2-7.4,20.1-7.4c14.1,0,25.6,8.8,25.6,19.5c0,6.1-3.9,12-10.3,15.7
		c-0.5,0.3-1,0.6-1.6,0.8c-0.6,0.3-0.9,0.8-0.9,1.5l0.2,5.7l-5.4-4.4c-0.4-0.3-0.9-0.4-1.3-0.3c-0.8,0.2-1.6,0.3-2.5,0.4
		c-0.1,0-0.3,0-0.4,0l-0.3,0l-0.1,0.1c-0.6,0.8-1.3,1.7-2,2.4l-0.6,0.6l0.9,0c1.7-0.1,3.4-0.2,5-0.5l8.8,7.3
		c0.1,0.1,0.3,0.2,0.5,0.2c0.1,0,0.2,0,0.3-0.1c0.3-0.1,0.4-0.4,0.4-0.7l-0.4-9.9c1.5-0.8,2.9-1.7,4.2-2.7c5.5-4.3,8.5-10,8.5-16.1
		C85.6,39.2,82.6,33.5,77.1,29.2z"/>
	<path d="M59.3,60.6c0.9-2,1.4-4.1,1.4-6.3c0-5-2.5-9.6-6.9-13.1c-4.4-3.4-10.1-5.3-16.3-5.3c-1.3,0-2.6,0.1-3.9,0.3
		c-1.1,0.1-2.1,0.3-3.1,0.6c-3.5,0.9-6.6,2.3-9.2,4.4c-4.5,3.5-6.9,8.1-6.9,13.1c0,5,2.5,9.6,6.9,13.1c1,0.8,2.1,1.5,3.3,2.1
		l-0.3,7.9c0,0.3,0.2,0.7,0.5,0.8c0.1,0.1,0.3,0.1,0.4,0.1c0.2,0,0.4-0.1,0.6-0.2l7.1-5.8c1.6,0.3,3.2,0.4,4.9,0.4
		c5.9,0,11.6-1.8,15.9-5c0.1-0.1,0.3-0.2,0.4-0.3c0.8-0.6,1.5-1.3,2.2-1.9c0.8-0.9,1.6-1.8,2.2-2.7C58.6,62,59,61.3,59.3,60.6z
		 M52.3,64.6c-0.8,0.7-1.8,1.3-2.8,1.9c-3.5,2-7.6,3-12,3c-0.8,0-1.7,0-2.5-0.1c-1-0.1-1.9-0.2-2.8-0.4c-0.3-0.1-0.6,0-0.8,0.2
		l-4,3.3l0.2-4.3c0-0.4-0.2-0.7-0.6-0.9c-0.7-0.3-1.3-0.7-1.9-1c-4.9-2.9-7.7-7.3-7.7-12c0-6.1,4.8-11.6,12.1-14
		c0.9-0.3,1.8-0.6,2.8-0.7c1.7-0.3,3.4-0.5,5.2-0.5c11.1,0,20.1,6.9,20.1,15.3C57.6,58.1,55.7,61.8,52.3,64.6z"/>
</g>
</svg>
